<svg width="376" height="72" viewBox="0 0 376 72" fill="none" xmlns="http://www.w3.org/2000/svg">
<g filter="url(#filter0_b_17_73)">
<rect x="1" y="1" width="374" height="70" rx="15" fill="url(#paint0_linear_17_73)" fill-opacity="0.5"/>
<rect x="0.5" y="0.5" width="375" height="71" rx="15.5" stroke="url(#paint1_linear_17_73)"/>
</g>
<path d="M358.815 35.3453C359.14 35.7211 359.14 36.2789 358.815 36.6547L347.638 49.5609C347.031 50.2608 345.882 49.8321 345.882 48.9062L345.882 23.0938C345.882 22.1679 347.031 21.7392 347.638 22.4391L358.815 35.3453Z" fill="url(#paint2_linear_17_73)" fill-opacity="0.8"/>
<path d="M118.13 36C118.13 34.6267 118.43 33.4 119.03 32.32C119.63 31.2267 120.45 30.38 121.49 29.78C122.53 29.1667 123.69 28.86 124.97 28.86C126.53 28.86 127.863 29.2333 128.97 29.98C130.09 30.7133 130.903 31.7533 131.41 33.1H129.77C129.37 32.1533 128.757 31.4133 127.93 30.88C127.117 30.3467 126.13 30.08 124.97 30.08C123.943 30.08 123.017 30.32 122.19 30.8C121.377 31.28 120.737 31.9733 120.27 32.88C119.803 33.7733 119.57 34.8133 119.57 36C119.57 37.1867 119.803 38.2267 120.27 39.12C120.737 40.0133 121.377 40.7 122.19 41.18C123.017 41.66 123.943 41.9 124.97 41.9C126.13 41.9 127.117 41.64 127.93 41.12C128.757 40.5867 129.37 39.8533 129.77 38.92H131.41C130.903 40.2533 130.09 41.2867 128.97 42.02C127.85 42.7533 126.517 43.12 124.97 43.12C123.69 43.12 122.53 42.82 121.49 42.22C120.45 41.6067 119.63 40.76 119.03 39.68C118.43 38.6 118.13 37.3733 118.13 36ZM135.6 41.86H140.62V43H134.2V29.02H135.6V41.86ZM144.018 29.02V43H142.618V29.02H144.018ZM146.548 36C146.548 34.6267 146.848 33.4 147.448 32.32C148.048 31.2267 148.868 30.38 149.908 29.78C150.948 29.1667 152.108 28.86 153.388 28.86C154.948 28.86 156.281 29.2333 157.388 29.98C158.508 30.7133 159.321 31.7533 159.828 33.1H158.188C157.788 32.1533 157.175 31.4133 156.348 30.88C155.535 30.3467 154.548 30.08 153.388 30.08C152.361 30.08 151.435 30.32 150.608 30.8C149.795 31.28 149.155 31.9733 148.688 32.88C148.221 33.7733 147.988 34.8133 147.988 36C147.988 37.1867 148.221 38.2267 148.688 39.12C149.155 40.0133 149.795 40.7 150.608 41.18C151.435 41.66 152.361 41.9 153.388 41.9C154.548 41.9 155.535 41.64 156.348 41.12C157.175 40.5867 157.788 39.8533 158.188 38.92H159.828C159.321 40.2533 158.508 41.2867 157.388 42.02C156.268 42.7533 154.935 43.12 153.388 43.12C152.108 43.12 150.948 42.82 149.908 42.22C148.868 41.6067 148.048 40.76 147.448 39.68C146.848 38.6 146.548 37.3733 146.548 36ZM170.078 43L164.018 36.54V43H162.618V29.02H164.018V35.56L170.078 29.02H171.858L165.318 36L171.918 43H170.078ZM193.133 29.2V43H191.733V31.98L186.813 43H185.793L180.873 32.02V43H179.473V29.2H180.953L186.293 41.16L191.633 29.2H193.133ZM197.709 30.16V35.38H203.009V36.54H197.709V41.84H203.609V43H196.309V29H203.609V30.16H197.709ZM222.396 43H220.996L213.256 31.24V43H211.856V29.02H213.256L220.996 40.76V29.02H222.396V43ZM231.847 43.14C230.554 43.14 229.38 42.84 228.327 42.24C227.274 41.6267 226.44 40.78 225.827 39.7C225.227 38.6067 224.927 37.3733 224.927 36C224.927 34.6267 225.227 33.4 225.827 32.32C226.44 31.2267 227.274 30.38 228.327 29.78C229.38 29.1667 230.554 28.86 231.847 28.86C233.154 28.86 234.334 29.1667 235.387 29.78C236.44 30.38 237.267 31.2267 237.867 32.32C238.467 33.4 238.767 34.6267 238.767 36C238.767 37.3733 238.467 38.6067 237.867 39.7C237.267 40.78 236.44 41.6267 235.387 42.24C234.334 42.84 233.154 43.14 231.847 43.14ZM231.847 41.92C232.887 41.92 233.82 41.68 234.647 41.2C235.474 40.72 236.127 40.0333 236.607 39.14C237.087 38.2333 237.327 37.1867 237.327 36C237.327 34.8133 237.087 33.7733 236.607 32.88C236.127 31.9867 235.474 31.3 234.647 30.82C233.82 30.34 232.887 30.1 231.847 30.1C230.807 30.1 229.874 30.34 229.047 30.82C228.22 31.3 227.567 31.9867 227.087 32.88C226.607 33.7733 226.367 34.8133 226.367 36C226.367 37.1867 226.607 38.2333 227.087 39.14C227.567 40.0333 228.22 40.72 229.047 41.2C229.874 41.68 230.807 41.92 231.847 41.92ZM258.289 29.02L254.329 43H252.769L249.249 31.08L245.649 43L244.129 43.02L240.249 29.02H241.749L244.949 41.28L248.529 29.02H250.089L253.569 41.28L256.789 29.02H258.289Z" fill="white"/>
<g filter="url(#filter1_b_17_73)">
<rect x="1.00024" y="1" width="70" height="70" rx="15" fill="url(#paint3_linear_17_73)" fill-opacity="0.5"/>
<rect x="0.500244" y="0.5" width="71" height="71" rx="15.5" stroke="url(#paint4_linear_17_73)"/>
</g>
<path d="M32.5003 29C32.5003 28.5359 32.6846 28.0908 33.0128 27.7626C33.341 27.4344 33.7861 27.25 34.2503 27.25C34.7144 27.25 35.1595 27.4344 35.4877 27.7626C35.8159 28.0908 36.0003 28.5359 36.0003 29V36.8225L38.1178 37.05L46.7628 40.8825C47.6903 41.3025 48.2503 42.23 48.2503 43.245V50.875C48.1978 52.31 47.0603 53.4475 45.6253 53.5H34.2503C33.5853 53.5 32.9553 53.2375 32.5003 52.7475L23.9252 45.3975L25.2202 44.05C25.5527 43.6825 26.0252 43.49 26.5152 43.49H26.9002L32.5003 46.5V29ZM34.2503 22C36.1068 22 37.8873 22.7375 39.2 24.0503C40.5128 25.363 41.2503 27.1435 41.2503 29C41.2503 31.625 39.8503 33.8475 37.7503 35.055V32.92C38.8178 31.9575 39.5003 30.5575 39.5003 29C39.5003 27.6076 38.9471 26.2723 37.9626 25.2877C36.978 24.3031 35.6426 23.75 34.2503 23.75C32.8579 23.75 31.5225 24.3031 30.5379 25.2877C29.5534 26.2723 29.0003 27.6076 29.0003 29C29.0003 30.5575 29.6828 31.9575 30.7503 32.92V35.055C28.6503 33.8475 27.2502 31.625 27.2502 29C27.2502 27.1435 27.9877 25.363 29.3005 24.0503C30.6133 22.7375 32.3937 22 34.2503 22V22ZM34.2503 18.5C37.035 18.5 39.7058 19.6062 41.6749 21.5754C43.644 23.5445 44.7503 26.2152 44.7503 29C44.7503 31.975 43.5078 34.6525 41.5303 36.5775L39.7803 35.79C40.7859 34.9669 41.5963 33.9309 42.1531 32.7568C42.7099 31.5826 42.9993 30.2995 43.0003 29C43.0003 26.6794 42.0784 24.4538 40.4375 22.8128C38.7965 21.1719 36.5709 20.25 34.2503 20.25C31.9296 20.25 29.704 21.1719 28.0631 22.8128C26.4221 24.4538 25.5002 26.6794 25.5002 29C25.5002 32.5875 27.6527 35.6675 30.7503 37.015V38.905C26.6727 37.4525 23.7502 33.5675 23.7502 29C23.7502 26.2152 24.8565 23.5445 26.8256 21.5754C28.7948 19.6062 31.4655 18.5 34.2503 18.5V18.5Z" fill="#F3F3F3"/>
<defs>
<filter id="filter0_b_17_73" x="-20" y="-20" width="416" height="112" filterUnits="userSpaceOnUse" color-interpolation-filters="sRGB">
<feFlood flood-opacity="0" result="BackgroundImageFix"/>
<feGaussianBlur in="BackgroundImage" stdDeviation="10"/>
<feComposite in2="SourceAlpha" operator="in" result="effect1_backgroundBlur_17_73"/>
<feBlend mode="normal" in="SourceGraphic" in2="effect1_backgroundBlur_17_73" result="shape"/>
</filter>
<filter id="filter1_b_17_73" x="-19.9998" y="-20" width="112" height="112" filterUnits="userSpaceOnUse" color-interpolation-filters="sRGB">
<feFlood flood-opacity="0" result="BackgroundImageFix"/>
<feGaussianBlur in="BackgroundImage" stdDeviation="10"/>
<feComposite in2="SourceAlpha" operator="in" result="effect1_backgroundBlur_17_73"/>
<feBlend mode="normal" in="SourceGraphic" in2="effect1_backgroundBlur_17_73" result="shape"/>
</filter>
<linearGradient id="paint0_linear_17_73" x1="188" y1="-174.613" x2="188" y2="71" gradientUnits="userSpaceOnUse">
<stop stop-color="#F3F3F3" stop-opacity="0.5"/>
<stop offset="1" stop-color="#F3F3F3" stop-opacity="0.05"/>
</linearGradient>
<linearGradient id="paint1_linear_17_73" x1="188" y1="-148.519" x2="188" y2="71" gradientUnits="userSpaceOnUse">
<stop stop-color="#C4C4C4" stop-opacity="0.9"/>
<stop offset="1" stop-color="#C4C4C4" stop-opacity="0.25"/>
</linearGradient>
<linearGradient id="paint2_linear_17_73" x1="356.907" y1="15.3136" x2="341.382" y2="64.3557" gradientUnits="userSpaceOnUse">
<stop stop-color="#C4C4C4"/>
<stop offset="1" stop-color="#C4C4C4" stop-opacity="0"/>
</linearGradient>
<linearGradient id="paint3_linear_17_73" x1="89.9009" y1="-147.907" x2="36.0003" y2="71" gradientUnits="userSpaceOnUse">
<stop stop-color="#F3F3F3" stop-opacity="0.5"/>
<stop offset="1" stop-color="#F3F3F3" stop-opacity="0.05"/>
</linearGradient>
<linearGradient id="paint4_linear_17_73" x1="36.0002" y1="-419.794" x2="36.0003" y2="71" gradientUnits="userSpaceOnUse">
<stop stop-color="#C4C4C4" stop-opacity="0.9"/>
<stop offset="1" stop-color="#C4C4C4" stop-opacity="0.25"/>
</linearGradient>
</defs>
</svg>
