<svg width="376" height="72" viewBox="0 0 376 72" fill="none" xmlns="http://www.w3.org/2000/svg">
<g filter="url(#filter0_b_17_74)">
<rect x="1" y="1" width="374" height="70" rx="15" fill="url(#paint0_linear_17_74)" fill-opacity="0.5"/>
<rect x="0.5" y="0.5" width="375" height="71" rx="15.5" stroke="url(#paint1_linear_17_74)"/>
</g>
<path d="M358.815 35.3453C359.14 35.7211 359.14 36.2789 358.815 36.6547L347.638 49.5609C347.031 50.2608 345.882 49.8321 345.882 48.9062L345.882 23.0938C345.882 22.1679 347.031 21.7392 347.638 22.4391L358.815 35.3453Z" fill="url(#paint2_linear_17_74)" fill-opacity="0.8"/>
<g filter="url(#filter1_b_17_74)">
<rect x="1.00049" y="1" width="70" height="70" rx="15" fill="url(#paint3_linear_17_74)" fill-opacity="0.5"/>
<rect x="0.500488" y="0.5" width="71" height="71" rx="15.5" stroke="url(#paint4_linear_17_74)"/>
</g>
<path d="M30.3262 46.082C30.3262 45.9453 30.1895 45.8086 29.9844 45.8086C29.7793 45.8086 29.6426 45.9453 29.6426 46.082C29.6426 46.2188 29.7793 46.3555 29.9844 46.2871C30.1895 46.2871 30.3262 46.2188 30.3262 46.082ZM28.207 45.7402C28.207 45.877 28.3438 46.082 28.5488 46.082C28.6855 46.1504 28.8906 46.082 28.959 45.9453C28.959 45.8086 28.8906 45.6719 28.6855 45.6035C28.4805 45.5352 28.2754 45.6035 28.207 45.7402ZM31.2832 45.6719C31.0781 45.6719 30.9414 45.8086 30.9414 46.0137C30.9414 46.1504 31.1465 46.2188 31.3516 46.1504C31.5566 46.082 31.6934 46.0137 31.625 45.877C31.625 45.7402 31.4199 45.6035 31.2832 45.6719ZM35.7266 19.4219C26.293 19.4219 19.0469 26.668 19.0469 36.1016C19.0469 43.6895 23.7637 50.1836 30.5996 52.5078C31.4883 52.6445 31.7617 52.0977 31.7617 51.6875C31.7617 51.209 31.7617 48.8848 31.7617 47.4492C31.7617 47.4492 26.9766 48.4746 25.9512 45.3984C25.9512 45.3984 25.1992 43.416 24.1055 42.9375C24.1055 42.9375 22.5332 41.8438 24.1738 41.8438C24.1738 41.8438 25.8828 41.9805 26.8398 43.6211C28.3438 46.2871 30.8047 45.5352 31.8301 45.0566C31.9668 43.9629 32.377 43.2109 32.9238 42.7324C29.0957 42.3223 25.1992 41.7754 25.1992 35.2129C25.1992 33.2988 25.7461 32.4102 26.8398 31.1797C26.6348 30.7012 26.0879 28.9238 27.0449 26.5312C28.4121 26.1211 31.7617 28.377 31.7617 28.377C33.1289 27.9668 34.5645 27.8301 36 27.8301C37.5039 27.8301 38.9395 27.9668 40.3066 28.377C40.3066 28.377 43.5879 26.0527 45.0234 26.5312C45.9805 28.9238 45.3652 30.7012 45.2285 31.1797C46.3223 32.4102 47.0059 33.2988 47.0059 35.2129C47.0059 41.7754 42.9727 42.3223 39.1445 42.7324C39.7598 43.2793 40.3066 44.3047 40.3066 45.9453C40.3066 48.2012 40.2383 51.0723 40.2383 51.6191C40.2383 52.0977 40.5801 52.6445 41.4688 52.4395C48.3047 50.1836 52.9531 43.6895 52.9531 36.1016C52.9531 26.668 45.2285 19.4219 35.7266 19.4219ZM25.6777 43.0059C25.541 43.0742 25.6094 43.2793 25.6777 43.416C25.8145 43.4844 25.9512 43.5527 26.0879 43.4844C26.1562 43.416 26.1562 43.2109 26.0195 43.0742C25.8828 43.0059 25.7461 42.9375 25.6777 43.0059ZM24.9258 42.459C24.8574 42.5957 24.9258 42.6641 25.0625 42.7324C25.1992 42.8008 25.3359 42.8008 25.4043 42.6641C25.4043 42.5957 25.3359 42.5273 25.1992 42.459C25.0625 42.3906 24.9941 42.3906 24.9258 42.459ZM27.1133 44.9199C27.0449 44.9883 27.0449 45.1934 27.25 45.3301C27.3867 45.4668 27.5918 45.5352 27.6602 45.3984C27.7285 45.3301 27.7285 45.125 27.5918 44.9883C27.4551 44.8516 27.25 44.7832 27.1133 44.9199ZM26.3613 43.8945C26.2246 43.9629 26.2246 44.168 26.3613 44.3047C26.498 44.4414 26.6348 44.5098 26.7715 44.4414C26.8398 44.373 26.8398 44.168 26.7715 44.0312C26.6348 43.8945 26.498 43.8262 26.3613 43.8945Z" fill="#F3F3F3"/>
<path d="M122.33 29.02L117.03 43H115.43L110.13 29.02H111.65L116.23 41.48L120.85 29.02H122.33ZM125.834 29.02V43H124.434V29.02H125.834ZM130.404 30.16V35.38H135.704V36.54H130.404V41.84H136.304V43H129.004V29H136.304V30.16H130.404ZM156.023 29.02L152.063 43H150.503L146.983 31.08L143.383 43L141.863 43.02L137.983 29.02H139.483L142.683 41.28L146.263 29.02H147.823L151.303 41.28L154.523 29.02H156.023ZM169.933 43.14C168.639 43.14 167.466 42.84 166.413 42.24C165.359 41.6267 164.526 40.78 163.913 39.7C163.313 38.6067 163.013 37.3733 163.013 36C163.013 34.6267 163.313 33.4 163.913 32.32C164.526 31.2267 165.359 30.38 166.413 29.78C167.466 29.1667 168.639 28.86 169.933 28.86C171.239 28.86 172.419 29.1667 173.473 29.78C174.526 30.38 175.353 31.2267 175.953 32.32C176.553 33.4 176.853 34.6267 176.853 36C176.853 37.3733 176.553 38.6067 175.953 39.7C175.353 40.78 174.526 41.6267 173.473 42.24C172.419 42.84 171.239 43.14 169.933 43.14ZM169.933 41.92C170.973 41.92 171.906 41.68 172.733 41.2C173.559 40.72 174.213 40.0333 174.693 39.14C175.173 38.2333 175.413 37.1867 175.413 36C175.413 34.8133 175.173 33.7733 174.693 32.88C174.213 31.9867 173.559 31.3 172.733 30.82C171.906 30.34 170.973 30.1 169.933 30.1C168.893 30.1 167.959 30.34 167.133 30.82C166.306 31.3 165.653 31.9867 165.173 32.88C164.693 33.7733 164.453 34.8133 164.453 36C164.453 37.1867 164.693 38.2333 165.173 39.14C165.653 40.0333 166.306 40.72 167.133 41.2C167.959 41.68 168.893 41.92 169.933 41.92ZM189.954 43H188.554L180.814 31.24V43H179.414V29.02H180.814L188.554 40.76V29.02H189.954V43ZM209.614 33.1C209.214 32.18 208.6 31.46 207.774 30.94C206.96 30.4067 206 30.14 204.894 30.14C203.854 30.14 202.92 30.38 202.094 30.86C201.267 31.34 200.614 32.0267 200.134 32.92C199.654 33.8 199.414 34.8267 199.414 36C199.414 37.1733 199.654 38.2067 200.134 39.1C200.614 39.9933 201.267 40.68 202.094 41.16C202.92 41.64 203.854 41.88 204.894 41.88C205.867 41.88 206.74 41.6733 207.514 41.26C208.3 40.8333 208.927 40.2333 209.394 39.46C209.874 38.6733 210.147 37.76 210.214 36.72H204.334V35.58H211.694V36.6C211.627 37.8267 211.294 38.94 210.694 39.94C210.094 40.9267 209.287 41.7067 208.274 42.28C207.274 42.8533 206.147 43.14 204.894 43.14C203.6 43.14 202.427 42.84 201.374 42.24C200.32 41.6267 199.487 40.78 198.874 39.7C198.274 38.6067 197.974 37.3733 197.974 36C197.974 34.6267 198.274 33.4 198.874 32.32C199.487 31.2267 200.32 30.38 201.374 29.78C202.427 29.1667 203.6 28.86 204.894 28.86C206.387 28.86 207.694 29.2333 208.814 29.98C209.934 30.7267 210.747 31.7667 211.254 33.1H209.614ZM215.658 29.02V43H214.258V29.02H215.658ZM227.009 29.02V30.18H223.129V43H221.729V30.18H217.829V29.02H227.009ZM239.599 29.02V43H238.199V36.46H230.619V43H229.219V29.02H230.619V35.3H238.199V29.02H239.599ZM244.133 29.02V37.82C244.133 39.2067 244.46 40.2333 245.113 40.9C245.78 41.5667 246.687 41.9 247.833 41.9C248.98 41.9 249.873 41.5733 250.513 40.92C251.167 40.2533 251.493 39.22 251.493 37.82V29.02H252.893V37.8C252.893 39.5733 252.42 40.9067 251.473 41.8C250.54 42.6933 249.32 43.14 247.813 43.14C246.307 43.14 245.08 42.6933 244.133 41.8C243.2 40.9067 242.733 39.5733 242.733 37.8V29.02H244.133ZM262.556 35.78C263.343 35.9267 264.009 36.3267 264.556 36.98C265.103 37.6333 265.376 38.3933 265.376 39.26C265.376 39.9667 265.196 40.6067 264.836 41.18C264.489 41.74 263.976 42.1867 263.296 42.52C262.616 42.84 261.803 43 260.856 43H256.016V29.02H260.716C262.129 29.02 263.203 29.3467 263.936 30C264.683 30.6533 265.056 31.5 265.056 32.54C265.056 33.4067 264.823 34.1133 264.356 34.66C263.889 35.1933 263.289 35.5667 262.556 35.78ZM257.416 35.2H260.676C261.623 35.2 262.349 34.98 262.856 34.54C263.376 34.0867 263.636 33.4667 263.636 32.68C263.636 31.9067 263.376 31.3 262.856 30.86C262.349 30.42 261.603 30.2 260.616 30.2H257.416V35.2ZM260.756 41.82C261.769 41.82 262.556 41.58 263.116 41.1C263.689 40.62 263.976 39.96 263.976 39.12C263.976 38.28 263.676 37.6133 263.076 37.12C262.489 36.6133 261.696 36.36 260.696 36.36H257.416V41.82H260.756Z" fill="white"/>
<defs>
<filter id="filter0_b_17_74" x="-20" y="-20" width="416" height="112" filterUnits="userSpaceOnUse" color-interpolation-filters="sRGB">
<feFlood flood-opacity="0" result="BackgroundImageFix"/>
<feGaussianBlur in="BackgroundImage" stdDeviation="10"/>
<feComposite in2="SourceAlpha" operator="in" result="effect1_backgroundBlur_17_74"/>
<feBlend mode="normal" in="SourceGraphic" in2="effect1_backgroundBlur_17_74" result="shape"/>
</filter>
<filter id="filter1_b_17_74" x="-19.9995" y="-20" width="112" height="112" filterUnits="userSpaceOnUse" color-interpolation-filters="sRGB">
<feFlood flood-opacity="0" result="BackgroundImageFix"/>
<feGaussianBlur in="BackgroundImage" stdDeviation="10"/>
<feComposite in2="SourceAlpha" operator="in" result="effect1_backgroundBlur_17_74"/>
<feBlend mode="normal" in="SourceGraphic" in2="effect1_backgroundBlur_17_74" result="shape"/>
</filter>
<linearGradient id="paint0_linear_17_74" x1="188" y1="-174.613" x2="188" y2="71" gradientUnits="userSpaceOnUse">
<stop stop-color="#F3F3F3" stop-opacity="0.5"/>
<stop offset="1" stop-color="#F3F3F3" stop-opacity="0.05"/>
</linearGradient>
<linearGradient id="paint1_linear_17_74" x1="188" y1="-148.519" x2="188" y2="71" gradientUnits="userSpaceOnUse">
<stop stop-color="#C4C4C4" stop-opacity="0.9"/>
<stop offset="1" stop-color="#C4C4C4" stop-opacity="0.25"/>
</linearGradient>
<linearGradient id="paint2_linear_17_74" x1="356.907" y1="15.3136" x2="341.382" y2="64.3557" gradientUnits="userSpaceOnUse">
<stop stop-color="#C4C4C4"/>
<stop offset="1" stop-color="#C4C4C4" stop-opacity="0"/>
</linearGradient>
<linearGradient id="paint3_linear_17_74" x1="89.9012" y1="-147.907" x2="36.0005" y2="71" gradientUnits="userSpaceOnUse">
<stop stop-color="#F3F3F3" stop-opacity="0.5"/>
<stop offset="1" stop-color="#F3F3F3" stop-opacity="0.05"/>
</linearGradient>
<linearGradient id="paint4_linear_17_74" x1="36.0005" y1="-419.794" x2="36.0005" y2="71" gradientUnits="userSpaceOnUse">
<stop stop-color="#C4C4C4" stop-opacity="0.9"/>
<stop offset="1" stop-color="#C4C4C4" stop-opacity="0.25"/>
</linearGradient>
</defs>
</svg>
