<svg width="40" height="40" viewBox="0 0 40 40" fill="none" xmlns="http://www.w3.org/2000/svg">
<circle cx="20" cy="20" r="20" fill="#053EFF"/>
<path d="M17.375 19.1562C18.8281 18.4062 19.625 17.3281 19.625 15.6875C19.625 12.3594 17.1406 11.5625 14.3281 11.5625H6.5V28.1562H14.5156C17.5625 28.1562 20.375 26.7031 20.375 23.3281C20.375 21.2656 19.3906 19.7188 17.375 19.1562ZM10.1094 14.375H13.5781C14.8906 14.375 16.0625 14.75 16.0625 16.2969C16.0625 17.7031 15.125 18.2656 13.8125 18.2656H10.1094V14.375ZM14.0469 25.3438H10.1094V20.75H14.0938C15.7344 20.75 16.7188 21.4531 16.7188 23.1406C16.7188 24.8281 15.5 25.3438 14.0469 25.3438ZM30.8281 14.0469V12.4062H24.125V14.0469H30.8281ZM33.5 22.3438C33.5 18.7812 31.3906 15.7812 27.6406 15.7812C23.9375 15.7812 21.4531 18.5469 21.4531 22.1562C21.4531 25.9062 23.8438 28.4844 27.6406 28.4844C30.5 28.4844 32.375 27.1719 33.2656 24.4531H30.3594C30.0312 25.4844 28.7188 26 27.7344 26C25.8125 26 24.7812 24.875 24.7812 22.9531H33.4531C33.4531 22.7656 33.5 22.5312 33.5 22.3438ZM24.7812 20.8438C24.875 19.2969 25.9531 18.3125 27.5 18.3125C29.1875 18.3125 30.0312 19.25 30.1719 20.8438H24.7812Z" fill="white"/>
</svg>
