<svg width="40" height="40" viewBox="0 0 40 40" fill="none" xmlns="http://www.w3.org/2000/svg">
<circle cx="20" cy="20" r="20" fill="#EA4C89"/>
<path d="M20 8.375C13.5781 8.375 8.375 13.625 8.375 20C8.375 26.4219 13.5781 31.625 20 31.625C26.375 31.625 31.625 26.4219 31.625 20C31.625 13.625 26.375 8.375 20 8.375ZM27.6406 13.7656C29.0469 15.4531 29.8906 17.6094 29.8906 19.9531C29.5625 19.8594 26.2812 19.2031 23 19.625C22.7188 18.9688 22.4844 18.4062 22.1094 17.6562C25.8125 16.1562 27.4531 14.0469 27.6406 13.7656ZM26.5625 12.5938C26.375 12.875 24.875 14.8906 21.3594 16.2031C19.7188 13.2031 17.9375 10.7656 17.6562 10.3906C20.7969 9.64062 24.125 10.4375 26.5625 12.5938ZM15.7344 11.0469C16.0156 11.4219 17.7969 13.8594 19.4375 16.8125C14.7969 18.0312 10.7188 18.0312 10.25 17.9844C10.9062 14.9375 12.9688 12.3594 15.7344 11.0469ZM10.0625 20.0469C10.0625 19.9531 10.0625 19.8594 10.0625 19.7188C10.4844 19.7656 15.3125 19.8125 20.2344 18.3125C20.5625 18.875 20.7969 19.4375 21.0781 20C17.4688 21.0312 14.1875 23.9375 12.5938 26.6562C11 24.9219 10.0625 22.5781 10.0625 20.0469ZM13.8594 27.875C14.9375 25.7656 17.75 23 21.7344 21.6406C23.1406 25.25 23.7031 28.2969 23.8438 29.1875C20.6562 30.5469 16.8125 30.1719 13.8594 27.875ZM25.5312 28.25C25.4375 27.6875 24.875 24.7812 23.6094 21.1719C26.7031 20.7031 29.4219 21.5 29.7969 21.5938C29.3281 24.3594 27.7344 26.75 25.5312 28.25Z" fill="white"/>
</svg>
