<svg width="40" height="40" viewBox="0 0 40 40" fill="none" xmlns="http://www.w3.org/2000/svg">
<circle cx="20" cy="20" r="20" fill="#1D1D1D"/>
<path d="M16.1094 26.6562C16.1094 26.5625 16.0156 26.4688 15.875 26.4688C15.7344 26.4688 15.6406 26.5625 15.6406 26.6562C15.6406 26.75 15.7344 26.8438 15.875 26.7969C16.0156 26.7969 16.1094 26.75 16.1094 26.6562ZM14.6562 26.4219C14.6562 26.5156 14.75 26.6562 14.8906 26.6562C14.9844 26.7031 15.125 26.6562 15.1719 26.5625C15.1719 26.4688 15.125 26.375 14.9844 26.3281C14.8438 26.2812 14.7031 26.3281 14.6562 26.4219ZM16.7656 26.375C16.625 26.375 16.5312 26.4688 16.5312 26.6094C16.5312 26.7031 16.6719 26.75 16.8125 26.7031C16.9531 26.6562 17.0469 26.6094 17 26.5156C17 26.4219 16.8594 26.3281 16.7656 26.375ZM19.8125 8.375C13.3438 8.375 8.375 13.3438 8.375 19.8125C8.375 25.0156 11.6094 29.4688 16.2969 31.0625C16.9062 31.1562 17.0938 30.7812 17.0938 30.5C17.0938 30.1719 17.0938 28.5781 17.0938 27.5938C17.0938 27.5938 13.8125 28.2969 13.1094 26.1875C13.1094 26.1875 12.5938 24.8281 11.8438 24.5C11.8438 24.5 10.7656 23.75 11.8906 23.75C11.8906 23.75 13.0625 23.8438 13.7188 24.9688C14.75 26.7969 16.4375 26.2812 17.1406 25.9531C17.2344 25.2031 17.5156 24.6875 17.8906 24.3594C15.2656 24.0781 12.5938 23.7031 12.5938 19.2031C12.5938 17.8906 12.9688 17.2812 13.7188 16.4375C13.5781 16.1094 13.2031 14.8906 13.8594 13.25C14.7969 12.9688 17.0938 14.5156 17.0938 14.5156C18.0312 14.2344 19.0156 14.1406 20 14.1406C21.0312 14.1406 22.0156 14.2344 22.9531 14.5156C22.9531 14.5156 25.2031 12.9219 26.1875 13.25C26.8438 14.8906 26.4219 16.1094 26.3281 16.4375C27.0781 17.2812 27.5469 17.8906 27.5469 19.2031C27.5469 23.7031 24.7812 24.0781 22.1562 24.3594C22.5781 24.7344 22.9531 25.4375 22.9531 26.5625C22.9531 28.1094 22.9062 30.0781 22.9062 30.4531C22.9062 30.7812 23.1406 31.1562 23.75 31.0156C28.4375 29.4688 31.625 25.0156 31.625 19.8125C31.625 13.3438 26.3281 8.375 19.8125 8.375ZM12.9219 24.5469C12.8281 24.5938 12.875 24.7344 12.9219 24.8281C13.0156 24.875 13.1094 24.9219 13.2031 24.875C13.25 24.8281 13.25 24.6875 13.1562 24.5938C13.0625 24.5469 12.9688 24.5 12.9219 24.5469ZM12.4062 24.1719C12.3594 24.2656 12.4062 24.3125 12.5 24.3594C12.5938 24.4062 12.6875 24.4062 12.7344 24.3125C12.7344 24.2656 12.6875 24.2188 12.5938 24.1719C12.5 24.125 12.4531 24.125 12.4062 24.1719ZM13.9062 25.8594C13.8594 25.9062 13.8594 26.0469 14 26.1406C14.0938 26.2344 14.2344 26.2812 14.2812 26.1875C14.3281 26.1406 14.3281 26 14.2344 25.9062C14.1406 25.8125 14 25.7656 13.9062 25.8594ZM13.3906 25.1562C13.2969 25.2031 13.2969 25.3438 13.3906 25.4375C13.4844 25.5312 13.5781 25.5781 13.6719 25.5312C13.7188 25.4844 13.7188 25.3438 13.6719 25.25C13.5781 25.1562 13.4844 25.1094 13.3906 25.1562Z" fill="white"/>
</svg>
