<svg width="42" height="42" viewBox="0 0 42 42" fill="none" xmlns="http://www.w3.org/2000/svg">
<g filter="url(#filter0_b_33_44)">
<rect x="1" y="1" width="40" height="40" rx="5" fill="url(#paint0_linear_33_44)" fill-opacity="0.5"/>
<rect x="0.5" y="0.5" width="41" height="41" rx="5.5" stroke="url(#paint1_linear_33_44)"/>
</g>
<path d="M26.45 23.5C26.55 22.675 26.625 21.85 26.625 21C26.625 20.15 26.55 19.325 26.45 18.5H30.675C30.875 19.3 31 20.1375 31 21C31 21.8625 30.875 22.7 30.675 23.5H26.45ZM24.2375 30.45C24.9875 29.0625 25.5625 27.5625 25.9625 26H29.65C28.439 28.0853 26.5176 29.665 24.2375 30.45V30.45ZM23.925 23.5H18.075C17.95 22.675 17.875 21.85 17.875 21C17.875 20.15 17.95 19.3125 18.075 18.5H23.925C24.0375 19.3125 24.125 20.15 24.125 21C24.125 21.85 24.0375 22.675 23.925 23.5ZM21 30.95C19.9625 29.45 19.125 27.7875 18.6125 26H23.3875C22.875 27.7875 22.0375 29.45 21 30.95ZM16 16H12.35C13.5486 13.909 15.4685 12.3269 17.75 11.55C17 12.9375 16.4375 14.4375 16 16ZM12.35 26H16C16.4375 27.5625 17 29.0625 17.75 30.45C15.4733 29.6646 13.5561 28.0846 12.35 26V26ZM11.325 23.5C11.125 22.7 11 21.8625 11 21C11 20.1375 11.125 19.3 11.325 18.5H15.55C15.45 19.325 15.375 20.15 15.375 21C15.375 21.85 15.45 22.675 15.55 23.5H11.325ZM21 11.0375C22.0375 12.5375 22.875 14.2125 23.3875 16H18.6125C19.125 14.2125 19.9625 12.5375 21 11.0375V11.0375ZM29.65 16H25.9625C25.5713 14.4518 24.992 12.9574 24.2375 11.55C26.5375 12.3375 28.45 13.925 29.65 16ZM21 8.5C14.0875 8.5 8.5 14.125 8.5 21C8.5 24.3152 9.81696 27.4946 12.1612 29.8388C13.3219 30.9996 14.6999 31.9203 16.2165 32.5485C17.733 33.1767 19.3585 33.5 21 33.5C24.3152 33.5 27.4946 32.183 29.8388 29.8388C32.183 27.4946 33.5 24.3152 33.5 21C33.5 19.3585 33.1767 17.733 32.5485 16.2165C31.9203 14.6999 30.9996 13.3219 29.8388 12.1612C28.6781 11.0004 27.3001 10.0797 25.7835 9.45151C24.267 8.82332 22.6415 8.5 21 8.5V8.5Z" fill="#F3F3F3" fill-opacity="0.9"/>
<defs>
<filter id="filter0_b_33_44" x="-20" y="-20" width="82" height="82" filterUnits="userSpaceOnUse" color-interpolation-filters="sRGB">
<feFlood flood-opacity="0" result="BackgroundImageFix"/>
<feGaussianBlur in="BackgroundImage" stdDeviation="10"/>
<feComposite in2="SourceAlpha" operator="in" result="effect1_backgroundBlur_33_44"/>
<feBlend mode="normal" in="SourceGraphic" in2="effect1_backgroundBlur_33_44" result="shape"/>
</filter>
<linearGradient id="paint0_linear_33_44" x1="-50.9261" y1="-50.4106" x2="21" y2="41" gradientUnits="userSpaceOnUse">
<stop offset="0.0176017" stop-color="#F3F3F3" stop-opacity="0.5"/>
<stop offset="1" stop-color="#F3F3F3" stop-opacity="0.05"/>
</linearGradient>
<linearGradient id="paint1_linear_33_44" x1="-33.2326" y1="-29.3974" x2="21" y2="41" gradientUnits="userSpaceOnUse">
<stop stop-color="#C4C4C4" stop-opacity="0.9"/>
<stop offset="1" stop-color="#C4C4C4" stop-opacity="0.2"/>
</linearGradient>
</defs>
</svg>
