<svg width="40" height="40" viewBox="0 0 40 40" fill="none" xmlns="http://www.w3.org/2000/svg">
<circle cx="20" cy="20" r="20" fill="#0A66C2"/>
<path d="M29 9.5H10.9531C10.1562 9.5 9.5 10.2031 9.5 11.0469V29C9.5 29.8438 10.1562 30.5 10.9531 30.5H29C29.7969 30.5 30.5 29.8438 30.5 29V11.0469C30.5 10.2031 29.7969 9.5 29 9.5ZM15.8281 27.5H12.7344V17.5156H15.8281V27.5ZM14.2812 16.1094C13.25 16.1094 12.4531 15.3125 12.4531 14.3281C12.4531 13.3438 13.25 12.5 14.2812 12.5C15.2656 12.5 16.0625 13.3438 16.0625 14.3281C16.0625 15.3125 15.2656 16.1094 14.2812 16.1094ZM27.5 27.5H24.3594V22.625C24.3594 21.5 24.3594 20 22.7656 20C21.125 20 20.8906 21.2656 20.8906 22.5781V27.5H17.7969V17.5156H20.75V18.875H20.7969C21.2188 18.0781 22.25 17.2344 23.75 17.2344C26.8906 17.2344 27.5 19.3438 27.5 22.0156V27.5Z" fill="white"/>
</svg>
