<svg width="41" height="40" viewBox="0 0 41 40" fill="none" xmlns="http://www.w3.org/2000/svg">
<circle cx="20.2502" cy="20" r="20" fill="url(#paint0_linear_10_28)"/>
<path d="M20.2502 14.6094C17.2502 14.6094 14.8596 17.0469 14.8596 20C14.8596 23 17.2502 25.3906 20.2502 25.3906C23.2034 25.3906 25.6409 23 25.6409 20C25.6409 17.0469 23.2034 14.6094 20.2502 14.6094ZM20.2502 23.5156C18.3284 23.5156 16.7346 21.9688 16.7346 20C16.7346 18.0781 18.2815 16.5312 20.2502 16.5312C22.1721 16.5312 23.719 18.0781 23.719 20C23.719 21.9688 22.1721 23.5156 20.2502 23.5156ZM27.094 14.4219C27.094 13.7188 26.5315 13.1562 25.8284 13.1562C25.1252 13.1562 24.5627 13.7188 24.5627 14.4219C24.5627 15.125 25.1252 15.6875 25.8284 15.6875C26.5315 15.6875 27.094 15.125 27.094 14.4219ZM30.6565 15.6875C30.5627 14 30.1877 12.5 28.969 11.2812C27.7502 10.0625 26.2502 9.6875 24.5627 9.59375C22.8284 9.5 17.6252 9.5 15.8909 9.59375C14.2034 9.6875 12.7502 10.0625 11.4846 11.2812C10.2659 12.5 9.89087 14 9.79712 15.6875C9.70337 17.4219 9.70337 22.625 9.79712 24.3594C9.89087 26.0469 10.2659 27.5 11.4846 28.7656C12.7502 29.9844 14.2034 30.3594 15.8909 30.4531C17.6252 30.5469 22.8284 30.5469 24.5627 30.4531C26.2502 30.3594 27.7502 29.9844 28.969 28.7656C30.1877 27.5 30.5627 26.0469 30.6565 24.3594C30.7502 22.625 30.7502 17.4219 30.6565 15.6875ZM28.4065 26.1875C28.0784 27.125 27.3284 27.8281 26.4377 28.2031C25.0315 28.7656 21.7502 28.625 20.2502 28.625C18.7034 28.625 15.4221 28.7656 14.0627 28.2031C13.1252 27.8281 12.4221 27.125 12.0471 26.1875C11.4846 24.8281 11.6252 21.5469 11.6252 20C11.6252 18.5 11.4846 15.2188 12.0471 13.8125C12.4221 12.9219 13.1252 12.2188 14.0627 11.8438C15.4221 11.2812 18.7034 11.4219 20.2502 11.4219C21.7502 11.4219 25.0315 11.2812 26.4377 11.8438C27.3284 12.1719 28.0315 12.9219 28.4065 13.8125C28.969 15.2188 28.8284 18.5 28.8284 20C28.8284 21.5469 28.969 24.8281 28.4065 26.1875Z" fill="white"/>
<defs>
<linearGradient id="paint0_linear_10_28" x1="26.2979" y1="69.8254" x2="83.0873" y2="13.858" gradientUnits="userSpaceOnUse">
<stop stop-color="white"/>
<stop offset="0.147864" stop-color="#F6640E"/>
<stop offset="0.443974" stop-color="#BA03A7"/>
<stop offset="0.733337" stop-color="#6A01B9"/>
<stop offset="1" stop-color="#6B01B9"/>
</linearGradient>
</defs>
</svg>
