<svg width="40" height="40" viewBox="0 0 40 40" fill="none" xmlns="http://www.w3.org/2000/svg">
<path d="M29.75 11H10.25C8.98438 11 8 12.0312 8 13.25V26.75C8 28.0156 8.98438 29 10.25 29H29.75C30.9688 29 32 28.0156 32 26.75V13.25C32 12.0312 30.9688 11 29.75 11ZM29.75 13.25V15.1719C28.6719 16.0625 26.9844 17.375 23.4219 20.1875C22.625 20.7969 21.0781 22.2969 20 22.25C18.875 22.2969 17.3281 20.7969 16.5312 20.1875C12.9688 17.375 11.2812 16.0625 10.25 15.1719V13.25H29.75ZM10.25 26.75V18.0781C11.2812 18.9219 12.8281 20.1406 15.125 21.9688C16.1562 22.7656 17.9844 24.5469 20 24.5C21.9688 24.5469 23.75 22.7656 24.8281 21.9688C27.125 20.1406 28.6719 18.9219 29.75 18.0781V26.75H10.25Z" fill="black"/>
<path d="M29.75 13.25H30.75V12.25H29.75V13.25ZM29.75 15.1719L30.3869 15.9428L30.75 15.6429V15.1719H29.75ZM23.4219 20.1875L24.0293 20.9819L24.0355 20.9772L24.0415 20.9724L23.4219 20.1875ZM20 22.25L20.0434 21.2509L20.0009 21.2491L19.9584 21.2509L20 22.25ZM16.5312 20.1875L15.9116 20.9724L15.9177 20.9772L15.9238 20.9819L16.5312 20.1875ZM10.25 15.1719H9.25V15.6296L9.59638 15.9287L10.25 15.1719ZM10.25 13.25V12.25H9.25V13.25H10.25ZM10.25 26.75H9.25V27.75H10.25V26.75ZM10.25 18.0781L10.8832 17.3042L9.25 15.9679V18.0781H10.25ZM15.125 21.9688L14.5023 22.7512L14.5079 22.7556L14.5136 22.76L15.125 21.9688ZM20 24.5L20.0238 23.5003L20.0003 23.4997L19.9768 23.5003L20 24.5ZM24.8281 21.9688L25.4225 22.7729L25.4369 22.7623L25.4509 22.7512L24.8281 21.9688ZM29.75 18.0781H30.75V16.0257L29.1337 17.2906L29.75 18.0781ZM29.75 26.75V27.75H30.75V26.75H29.75ZM29.75 10H10.25V12H29.75V10ZM10.25 10C8.41857 10 7 11.4926 7 13.25H9C9 12.5699 9.55018 12 10.25 12V10ZM7 13.25V26.75H9V13.25H7ZM7 26.75C7 28.5679 8.43209 30 10.25 30V28C9.53666 28 9 27.4633 9 26.75H7ZM10.25 30H29.75V28H10.25V30ZM29.75 30C31.5074 30 33 28.5814 33 26.75H31C31 27.4498 30.4301 28 29.75 28V30ZM33 26.75V13.25H31V26.75H33ZM33 13.25C33 11.479 31.521 10 29.75 10V12C30.4165 12 31 12.5835 31 13.25H33ZM28.75 13.25V15.1719H30.75V13.25H28.75ZM29.1131 14.4009C28.0464 15.2821 26.3763 16.581 22.8022 19.4026L24.0415 20.9724C27.5924 18.169 29.2974 16.8429 30.3869 15.9428L29.1131 14.4009ZM22.8144 19.3931C22.5961 19.5601 22.3236 19.7901 22.0669 20.0015C21.7969 20.2239 21.5161 20.4497 21.2337 20.6521C20.9485 20.8567 20.686 21.0195 20.4562 21.1263C20.2156 21.238 20.0856 21.2528 20.0434 21.2509L19.9566 23.2491C20.4535 23.2707 20.9211 23.1155 21.2987 22.9402C21.6871 22.7598 22.0632 22.5183 22.3991 22.2775C22.7378 22.0347 23.0605 21.7742 23.3383 21.5454C23.6295 21.3056 23.8492 21.1196 24.0293 20.9819L22.8144 19.3931ZM19.9584 21.2509C19.8966 21.2534 19.7533 21.2338 19.5094 21.1229C19.2743 21.016 19.0085 20.8533 18.7217 20.6496C18.4375 20.4477 18.156 20.2225 17.8859 20.0007C17.6298 19.7903 17.3563 19.5596 17.1387 19.3931L15.9238 20.9819C16.1046 21.1201 16.3233 21.3054 16.6165 21.5462C16.8957 21.7755 17.2207 22.0366 17.5635 22.2801C17.9036 22.5217 18.2853 22.7633 18.6815 22.9435C19.0689 23.1197 19.5409 23.27 20.0416 23.2491L19.9584 21.2509ZM17.1509 19.4026C13.5711 16.5765 11.9128 15.2866 10.9036 14.4151L9.59638 15.9287C10.6497 16.8384 12.3664 18.1735 15.9116 20.9724L17.1509 19.4026ZM11.25 15.1719V13.25H9.25V15.1719H11.25ZM10.25 14.25H29.75V12.25H10.25V14.25ZM11.25 26.75V18.0781H9.25V26.75H11.25ZM9.61676 18.8521C10.655 19.7015 12.2128 20.929 14.5023 22.7512L15.7477 21.1863C13.4435 19.3523 11.9075 18.1422 10.8832 17.3042L9.61676 18.8521ZM14.5136 22.76C14.9447 23.0932 15.7698 23.824 16.6523 24.3918C17.5559 24.9731 18.7214 25.53 20.0232 25.4997L19.9768 23.5003C19.263 23.5169 18.5066 23.2066 17.7344 22.7098C16.9412 22.1995 16.3366 21.6412 15.7364 21.1775L14.5136 22.76ZM19.9762 25.4997C21.2617 25.5303 22.4071 24.9673 23.2945 24.3883C23.7472 24.0929 24.1614 23.7739 24.5188 23.4892C24.894 23.1903 25.1721 22.958 25.4225 22.7729L24.2337 21.1646C23.9451 21.3779 23.5962 21.6671 23.2727 21.9249C22.9313 22.1968 22.575 22.4696 22.2016 22.7133C21.4366 23.2124 20.7071 23.5166 20.0238 23.5003L19.9762 25.4997ZM25.4509 22.7512C27.746 20.9244 29.2907 19.7074 30.3663 18.8656L29.1337 17.2906C28.053 18.1364 26.504 19.3568 24.2054 21.1863L25.4509 22.7512ZM28.75 18.0781V26.75H30.75V18.0781H28.75ZM29.75 25.75H10.25V27.75H29.75V25.75Z" fill="black"/>
<path fill-rule="evenodd" clip-rule="evenodd" d="M20 40C31.0457 40 40 31.0457 40 20C40 8.9543 31.0457 0 20 0C8.9543 0 0 8.9543 0 20C0 31.0457 8.9543 40 20 40ZM8 13.25C8 12.0312 8.98438 11 10.25 11H29.75C30.9688 11 32 12.0312 32 13.25V26.75C32 28.0156 30.9688 29 29.75 29H10.25C8.98438 29 8 28.0156 8 26.75V13.25ZM29.75 15.1719V13.25H10.25V15.1719C11.0889 15.8964 12.3622 16.9001 14.7258 18.7635C15.2677 19.1906 15.8669 19.663 16.5312 20.1875C16.6779 20.2997 16.85 20.442 17.0403 20.5994C17.8833 21.2967 19.0821 22.2882 20 22.25C20.8748 22.288 22.0582 21.3077 22.8991 20.611C23.0946 20.449 23.2716 20.3024 23.4219 20.1875C24.4397 19.3839 25.3045 18.7028 26.0458 18.119C27.8989 16.6594 28.9799 15.808 29.75 15.1719ZM10.25 18.0781V26.75H29.75V18.0781C28.6719 18.9219 27.125 20.1406 24.8281 21.9688C24.6404 22.1075 24.4314 22.2761 24.2037 22.4597C23.124 23.3305 21.626 24.5387 20 24.5C18.2735 24.5402 16.6845 23.239 15.6161 22.3641C15.4372 22.2176 15.2729 22.083 15.125 21.9688C14.4721 21.4491 13.8799 20.9787 13.3428 20.5522C11.9904 19.4781 10.9881 18.6821 10.25 18.0781Z" fill="#F3F3F3"/>
</svg>
