<svg width="41" height="40" viewBox="0 0 41 40" fill="none" xmlns="http://www.w3.org/2000/svg">
<circle cx="20.2502" cy="20" r="20" fill="#1E1D1D"/>
<path d="M30.7502 17.8438V13.7656C30.7034 13.7656 30.7034 13.7656 30.7034 13.7656C29.5784 13.7656 28.5002 13.4375 27.6096 12.8281C26.2971 11.9844 25.3596 10.625 25.0784 9.07812C24.9846 8.75 24.9846 8.42188 24.9846 8.09375C24.9846 8.04688 24.9846 8.04688 24.9846 8H20.8596V24.4062C20.8596 26.3281 19.2659 27.9219 17.344 27.9219C15.4221 27.9219 13.8284 26.3281 13.8284 24.4062C13.8284 22.4844 15.4221 20.8906 17.344 20.8906C17.719 20.8906 18.0471 20.9375 18.4221 21.0781V16.8594C18.0471 16.8125 17.719 16.7656 17.344 16.7656C13.1252 16.7656 9.75024 20.1875 9.75024 24.4062C9.75024 28.625 13.1252 32 17.344 32C21.5627 32 24.9846 28.625 24.9846 24.4062V16.0156C26.5784 17.1875 28.5471 17.8438 30.7034 17.8438H30.7502Z" fill="white"/>
</svg>
