<svg width="41" height="40" viewBox="0 0 41 40" fill="none" xmlns="http://www.w3.org/2000/svg">
<circle cx="20.2502" cy="20" r="20" fill="#1DA1F2"/>
<path d="M29.7659 15.125C30.7034 14.4219 31.5471 13.5781 32.2034 12.5938C31.3596 12.9688 30.3752 13.25 29.3909 13.3438C30.4221 12.7344 31.1721 11.7969 31.5471 10.625C30.6096 11.1875 29.5315 11.6094 28.4534 11.8438C27.5159 10.8594 26.2502 10.2969 24.844 10.2969C22.1252 10.2969 19.9221 12.5 19.9221 15.2188C19.9221 15.5938 19.969 15.9688 20.0627 16.3438C15.9846 16.1094 12.3284 14.1406 9.89087 11.1875C9.46899 11.8906 9.23462 12.7344 9.23462 13.6719C9.23462 15.3594 10.0784 16.8594 11.4377 17.75C10.6409 17.7031 9.84399 17.5156 9.18774 17.1406V17.1875C9.18774 19.5781 10.8752 21.5469 13.1252 22.0156C12.7502 22.1094 12.2815 22.2031 11.8596 22.2031C11.5315 22.2031 11.2502 22.1562 10.9221 22.1094C11.5315 24.0781 13.3596 25.4844 15.5159 25.5312C13.8284 26.8438 11.719 27.6406 9.42212 27.6406C9.00024 27.6406 8.62524 27.5938 8.25024 27.5469C10.4065 28.9531 12.9846 29.75 15.7971 29.75C24.844 29.75 29.7659 22.2969 29.7659 15.7812C29.7659 15.5469 29.7659 15.3594 29.7659 15.125Z" fill="white"/>
</svg>
