<svg width="41" height="40" viewBox="0 0 41 40" fill="none" xmlns="http://www.w3.org/2000/svg">
<circle cx="20.2502" cy="20" r="20" fill="#25D366"/>
<path d="M27.5627 11.5938C25.6409 9.625 23.0159 8.5 20.2034 8.5C14.4846 8.5 9.79712 13.1875 9.79712 18.9062C9.79712 20.7812 10.3127 22.5625 11.2034 24.1094L9.75024 29.5L15.2346 28.0938C16.7815 28.8906 18.469 29.3594 20.2034 29.3594C25.969 29.3594 30.7502 24.6719 30.7502 18.9531C30.7502 16.1406 29.5315 13.5625 27.5627 11.5938ZM20.2034 27.5781C18.6565 27.5781 17.1565 27.1562 15.7971 26.3594L15.5159 26.1719L12.2346 27.0625L13.1252 23.875L12.8909 23.5469C12.0471 22.1406 11.5784 20.5469 11.5784 18.9062C11.5784 14.1719 15.469 10.2812 20.2502 10.2812C22.5471 10.2812 24.7034 11.1719 26.344 12.8125C27.9846 14.4531 28.969 16.6094 28.969 18.9531C28.969 23.6875 24.9846 27.5781 20.2034 27.5781ZM24.9846 21.1094C24.7034 20.9688 23.4377 20.3594 23.2034 20.2656C22.969 20.1719 22.7815 20.125 22.594 20.4062C22.4534 20.6406 21.9377 21.25 21.7971 21.4375C21.6096 21.5781 21.469 21.625 21.2346 21.4844C19.6877 20.7344 18.7034 20.125 17.6721 18.3906C17.3909 17.9219 17.9534 17.9688 18.4221 16.9844C18.5159 16.7969 18.469 16.6562 18.4221 16.5156C18.3752 16.375 17.8127 15.1094 17.6252 14.5938C17.3909 14.0781 17.2034 14.125 17.0159 14.125C16.8752 14.125 16.6877 14.125 16.5471 14.125C16.3596 14.125 16.0784 14.1719 15.844 14.4531C15.6096 14.7344 14.9534 15.3438 14.9534 16.6094C14.9534 17.9219 15.844 19.1406 15.9846 19.3281C16.1252 19.4688 17.8127 22.0938 20.4377 23.2188C22.0784 23.9688 22.7346 24.0156 23.5784 23.875C24.0471 23.8281 25.0784 23.2656 25.3127 22.6562C25.5471 22.0469 25.5471 21.5312 25.4534 21.4375C25.4065 21.2969 25.219 21.25 24.9846 21.1094Z" fill="white"/>
</svg>
