<svg width="41" height="40" viewBox="0 0 41 40" fill="none" xmlns="http://www.w3.org/2000/svg">
<circle cx="20.2502" cy="20" r="20" fill="#FF0000"/>
<path d="M32.4846 13.8594C32.2034 12.7344 31.3127 11.8438 30.2346 11.5625C28.219 11 20.2502 11 20.2502 11C20.2502 11 12.2346 11 10.219 11.5625C9.14087 11.8438 8.25024 12.7344 7.96899 13.8594C7.40649 15.8281 7.40649 20.0469 7.40649 20.0469C7.40649 20.0469 7.40649 24.2188 7.96899 26.2344C8.25024 27.3594 9.14087 28.2031 10.219 28.4844C12.2346 29 20.2502 29 20.2502 29C20.2502 29 28.219 29 30.2346 28.4844C31.3127 28.2031 32.2034 27.3594 32.4846 26.2344C33.0471 24.2188 33.0471 20.0469 33.0471 20.0469C33.0471 20.0469 33.0471 15.8281 32.4846 13.8594ZM17.6252 23.8438V16.25L24.2815 20.0469L17.6252 23.8438Z" fill="white"/>
</svg>
