<svg width="376" height="72" viewBox="0 0 376 72" fill="none" xmlns="http://www.w3.org/2000/svg">
<g filter="url(#filter0_b_60_496)">
<rect x="1" y="1" width="374" height="70" rx="15" fill="url(#paint0_linear_60_496)" fill-opacity="0.5"/>
<rect x="0.5" y="0.5" width="375" height="71" rx="15.5" stroke="url(#paint1_linear_60_496)"/>
</g>
<path d="M358.815 35.3453C359.14 35.7211 359.14 36.2789 358.815 36.6547L347.638 49.5609C347.031 50.2608 345.882 49.8321 345.882 48.9062L345.882 23.0938C345.882 22.1679 347.031 21.7392 347.638 22.4391L358.815 35.3453Z" fill="url(#paint2_linear_60_496)" fill-opacity="0.8"/>
<g filter="url(#filter1_b_60_496)">
<rect x="1.00024" y="1" width="70" height="70" rx="15" fill="url(#paint3_linear_60_496)" fill-opacity="0.5"/>
<rect x="0.500244" y="0.5" width="71" height="71" rx="15.5" stroke="url(#paint4_linear_60_496)"/>
</g>
<defs>
<filter id="filter0_b_60_496" x="-20" y="-20" width="416" height="112" filterUnits="userSpaceOnUse" color-interpolation-filters="sRGB">
<feFlood flood-opacity="0" result="BackgroundImageFix"/>
<feGaussianBlur in="BackgroundImage" stdDeviation="10"/>
<feComposite in2="SourceAlpha" operator="in" result="effect1_backgroundBlur_60_496"/>
<feBlend mode="normal" in="SourceGraphic" in2="effect1_backgroundBlur_60_496" result="shape"/>
</filter>
<filter id="filter1_b_60_496" x="-19.9998" y="-20" width="112" height="112" filterUnits="userSpaceOnUse" color-interpolation-filters="sRGB">
<feFlood flood-opacity="0" result="BackgroundImageFix"/>
<feGaussianBlur in="BackgroundImage" stdDeviation="10"/>
<feComposite in2="SourceAlpha" operator="in" result="effect1_backgroundBlur_60_496"/>
<feBlend mode="normal" in="SourceGraphic" in2="effect1_backgroundBlur_60_496" result="shape"/>
</filter>
<linearGradient id="paint0_linear_60_496" x1="188" y1="-174.613" x2="188" y2="71" gradientUnits="userSpaceOnUse">
<stop stop-color="#F3F3F3" stop-opacity="0.5"/>
<stop offset="1" stop-color="#F3F3F3" stop-opacity="0.05"/>
</linearGradient>
<linearGradient id="paint1_linear_60_496" x1="188" y1="-148.519" x2="188" y2="71" gradientUnits="userSpaceOnUse">
<stop stop-color="#C4C4C4" stop-opacity="0.9"/>
<stop offset="1" stop-color="#C4C4C4" stop-opacity="0.25"/>
</linearGradient>
<linearGradient id="paint2_linear_60_496" x1="356.907" y1="15.3136" x2="341.382" y2="64.3557" gradientUnits="userSpaceOnUse">
<stop stop-color="#C4C4C4"/>
<stop offset="1" stop-color="#C4C4C4" stop-opacity="0"/>
</linearGradient>
<linearGradient id="paint3_linear_60_496" x1="89.9009" y1="-147.907" x2="36.0003" y2="71" gradientUnits="userSpaceOnUse">
<stop stop-color="#F3F3F3" stop-opacity="0.5"/>
<stop offset="1" stop-color="#F3F3F3" stop-opacity="0.05"/>
</linearGradient>
<linearGradient id="paint4_linear_60_496" x1="36.0002" y1="-419.794" x2="36.0003" y2="71" gradientUnits="userSpaceOnUse">
<stop stop-color="#C4C4C4" stop-opacity="0.9"/>
<stop offset="1" stop-color="#C4C4C4" stop-opacity="0.25"/>
</linearGradient>
</defs>
</svg>
