<svg width="26" height="36" viewBox="0 0 26 36" fill="none" xmlns="http://www.w3.org/2000/svg">
<path d="M9.50026 11C9.50026 10.5359 9.68463 10.0908 10.0128 9.76257C10.341 9.43439 10.7861 9.25001 11.2503 9.25001C11.7144 9.25001 12.1595 9.43439 12.4877 9.76257C12.8159 10.0908 13.0003 10.5359 13.0003 11V18.8225L15.1178 19.05L23.7628 22.8825C24.6903 23.3025 25.2503 24.23 25.2503 25.245V32.875C25.1978 34.31 24.0603 35.4475 22.6253 35.5H11.2503C10.5853 35.5 9.95526 35.2375 9.50026 34.7475L0.925244 27.3975L2.22025 26.05C2.55275 25.6825 3.02525 25.49 3.51525 25.49H3.90025L9.50026 28.5V11ZM11.2503 4C13.1068 4 14.8873 4.7375 16.2 6.05026C17.5128 7.36302 18.2503 9.1435 18.2503 11C18.2503 13.625 16.8503 15.8475 14.7503 17.055V14.92C15.8178 13.9575 16.5003 12.5575 16.5003 11C16.5003 9.60762 15.9471 8.27227 14.9626 7.2877C13.978 6.30313 12.6426 5.75001 11.2503 5.75001C9.85787 5.75001 8.52251 6.30313 7.53794 7.2877C6.55337 8.27227 6.00025 9.60762 6.00025 11C6.00025 12.5575 6.68275 13.9575 7.75025 14.92V17.055C5.65025 15.8475 4.25025 13.625 4.25025 11C4.25025 9.1435 4.98775 7.36302 6.3005 6.05026C7.61326 4.7375 9.39374 4 11.2503 4V4ZM11.2503 0.5C14.035 0.5 16.7058 1.60625 18.6749 3.57538C20.644 5.54452 21.7503 8.21524 21.7503 11C21.7503 13.975 20.5078 16.6525 18.5303 18.5775L16.7803 17.79C17.7859 16.9669 18.5963 15.9309 19.1531 14.7568C19.7099 13.5826 19.9993 12.2995 20.0003 11C20.0003 8.67937 19.0784 6.45377 17.4375 4.81282C15.7965 3.17188 13.5709 2.25 11.2503 2.25C8.92961 2.25 6.70401 3.17188 5.06307 4.81282C3.42212 6.45377 2.50025 8.67937 2.50025 11C2.50025 14.5875 4.65275 17.6675 7.75025 19.015V20.905C3.67275 19.4525 0.750244 15.5675 0.750244 11C0.750244 8.21524 1.85649 5.54452 3.82563 3.57538C5.79476 1.60625 8.46548 0.5 11.2503 0.5V0.5Z" fill="#F3F3F3"/>
</svg>
